<svg width="200" height="200" viewBox="0 0 200 200" fill="none" xmlns="http://www.w3.org/2000/svg">
<g clip-path="url(#clip0_16_173)">
<rect width="200" height="200" rx="30" fill="#221F1F"/>
<rect width="200" height="200" rx="29.7239" fill="#221F1F"/>
<path d="M184.965 98.0174L184.985 97.9994C183.397 91.3617 179.185 85.5819 173.25 81.2425C170.031 78.8854 166.647 76.6277 162.88 74.9795C161.007 74.1622 159.036 73.4894 156.992 73.0966C153.277 72.3831 149.075 72.2116 145.267 72.4057C141.588 72.5999 137.981 73.4036 134.773 74.9931C133.474 75.6298 132.325 76.6367 131.368 77.6572C129.035 80.1588 129.371 83.8299 131.865 85.8708C134.157 87.7448 139.704 87.8938 141.577 85.6767C142.338 84.7736 143.068 84.1008 144.32 83.279C148.19 80.7097 151.75 79.1834 156.366 79.5176C170.342 80.5155 184.276 91.1855 181.451 106.556C180.328 112.652 176.722 116.77 169.964 118.54C163.77 120.157 157.489 119.764 151.295 118.351C141.645 116.147 132.605 112.611 123.638 108.913V37.6953H121.78C116.766 42.0708 112 42.3959 104.384 42.3959C99.4318 58.7645 91.7323 76.8264 84.721 92.2422L82.5736 91.5152C76.8766 89.3974 71.1899 87.2526 65.3894 85.3606C53.4417 81.4773 40.4695 78.8583 27.6577 80.0233C14.8407 81.1883 3.81401 86.95 -4.56853 95.7191C-12.563 104.113 -17.1682 113.754 -18.3066 124.586C-18.8137 129.472 -18.6015 134.448 -17.1268 139.208C-16.2782 141.948 -15.233 144.671 -13.7013 147.182C-7.58521 157.184 5.67679 161.618 18.054 161.717C30.8296 161.821 41.1991 156.804 50.2698 149.453C64.1268 138.219 73.1872 124.148 81.0885 109.419C82.7857 106.263 84.395 103.07 86.1025 99.7604C91.7426 102.677 97.1602 105.549 102.681 108.295L104.389 109.148V144.102C103.97 155.612 103.152 155.612 93.3053 157.233V158.854H134.742V157.292C127.037 155.811 123.829 156.98 123.638 144.102V118.68C124.605 119.118 125.573 119.556 126.546 119.981C129.48 121.268 132.445 122.5 135.472 123.625C141.5 125.855 147.792 127.666 154.296 128.434C157.183 128.772 160.04 128.953 162.948 128.551C166.451 128.068 168.66 127.147 171.139 125.77C182.16 119.651 187.376 108.064 184.97 98.0129L184.965 98.0174ZM74.6671 110.638L74.6775 110.629C69.9843 118.5 64.6339 126 57.7934 132.638C50.3733 139.835 41.8459 145.719 30.8451 147.981C20.5066 150.108 10.1992 150.51 0.96291 144.604C-4.98765 140.797 -8.01985 135.428 -9.00299 129.251C-11.7454 112.006 -1.09133 94.3464 16.8535 86.5843C25.679 82.9838 35.4244 82.1411 45.2041 84.0917C56.9551 86.4308 67.6454 90.9959 78.1495 95.9403C79.2723 96.4686 80.3848 97.006 81.7871 97.6788C79.381 102.081 77.1715 106.43 74.6671 110.643V110.638ZM103.856 100.411C98.6401 98.1484 93.74 96.0171 89.3055 94.0935C94.6351 81.1341 98.9609 71.2949 104.384 56.4119V100.636L103.856 100.406V100.411Z" fill="white"/>
<rect y="185" width="203" height="15" fill="#0052E5"/>
</g>
<defs>
<clipPath id="clip0_16_173">
<rect width="200" height="200" rx="30" fill="white"/>
</clipPath>
</defs>
</svg>
