<svg width="1000" height="697" viewBox="0 0 1000 697" fill="none" xmlns="http://www.w3.org/2000/svg">
<path d="M997.148 339.314L997.249 339.213C989.466 301.945 968.829 269.495 939.75 245.131C923.981 231.898 907.401 219.222 888.945 209.968C879.767 205.379 870.108 201.602 860.094 199.396C841.891 195.391 821.305 194.427 802.646 195.517C784.621 196.607 766.951 201.12 751.232 210.044C744.869 213.619 739.241 219.272 734.551 225.002C723.117 239.047 724.765 259.658 736.984 271.117C748.215 281.638 775.393 282.475 784.57 270.027C788.297 264.957 791.872 261.179 798.007 256.565C816.97 242.14 834.412 233.571 857.026 235.447C925.503 241.05 993.776 300.957 979.934 387.255C974.432 421.481 956.762 444.602 923.652 454.54C893.305 463.616 862.528 461.41 832.181 453.475C784.9 441.103 740.61 421.252 696.674 400.489V0.635742H687.573C663.007 25.2019 639.658 27.0273 602.339 27.0273C578.077 118.929 540.353 220.337 506.001 306.889L495.48 302.807C467.568 290.917 439.706 278.875 411.286 268.252C352.748 246.45 289.19 231.745 226.418 238.286C163.621 244.827 109.596 277.176 68.5255 326.41C29.3565 373.54 6.79313 427.666 1.21567 488.486C-1.26884 515.917 -0.229403 543.855 6.99595 570.576C11.1537 585.965 16.2748 601.252 23.779 615.348C53.7452 671.503 118.723 696.399 179.365 696.956C241.959 697.539 292.765 669.373 337.207 628.1C405.1 565.024 449.492 486.027 488.204 403.328C496.52 385.607 504.404 367.683 512.77 349.1C540.404 365.478 566.948 381.602 593.998 397.016L602.365 401.807V598.058C600.311 662.68 596.306 662.68 548.06 671.782V680.883H751.08V672.111C713.331 663.796 697.612 670.362 696.674 598.058V455.326C701.415 457.785 706.156 460.244 710.922 462.627C725.297 469.852 739.824 476.773 754.655 483.086C784.19 495.61 815.018 505.776 846.886 510.086C861.032 511.987 875.026 513.002 889.274 510.745C906.438 508.033 917.263 502.861 929.407 495.128C983.407 460.776 1008.96 395.723 997.173 339.289L997.148 339.314ZM456.742 410.173L456.793 410.123C433.799 454.312 407.584 496.421 374.069 533.689C337.714 574.1 295.934 607.134 242.035 619.835C191.382 631.776 140.88 634.032 95.6269 600.872C66.472 579.5 51.6156 549.356 46.7987 514.675C33.3621 417.855 85.5621 318.703 173.483 275.123C216.724 254.908 264.472 250.176 312.387 261.129C369.962 274.261 422.339 299.892 473.804 327.652C479.306 330.619 484.756 333.636 491.627 337.413C479.838 362.131 469.013 386.545 456.742 410.199V410.173ZM599.753 352.751C574.199 340.05 550.19 328.083 528.463 317.283C554.576 244.523 575.77 189.281 602.339 105.72V354.019L599.753 352.726V352.751Z" fill="#221F1F"/>
</svg>
