<svg width="1000" height="698" viewBox="0 0 1000 698" fill="none" xmlns="http://www.w3.org/2000/svg">
<path d="M997.148 339.643L997.249 339.542C989.466 302.274 968.829 269.824 939.75 245.46C923.981 232.227 907.401 219.551 888.945 210.297C879.767 205.708 870.108 201.931 860.094 199.725C841.891 195.72 821.305 194.756 802.646 195.846C784.621 196.937 766.951 201.449 751.232 210.373C744.869 213.948 739.241 219.601 734.551 225.331C723.117 239.376 724.765 259.987 736.984 271.446C748.215 281.967 775.393 282.804 784.57 270.356C788.297 265.286 791.872 261.508 798.007 256.894C816.97 242.469 834.412 233.9 857.026 235.776C925.503 241.379 993.776 301.286 979.934 387.584C974.432 421.81 956.762 444.931 923.652 454.869C893.305 463.945 862.528 461.739 832.181 453.804C784.9 441.432 740.61 421.581 696.674 400.818V0.964844H687.573C663.007 25.531 639.658 27.3564 602.339 27.3564C578.077 119.258 540.353 220.666 506.001 307.218L495.48 303.136C467.568 291.246 439.706 279.204 411.286 268.582C352.748 246.779 289.19 232.075 226.418 238.615C163.621 245.156 109.596 277.505 68.5255 326.739C29.3565 373.869 6.79313 427.996 1.21567 488.815C-1.26884 516.246 -0.229403 544.184 6.99595 570.905C11.1537 586.294 16.2748 601.581 23.779 615.677C53.7452 671.832 118.723 696.728 179.365 697.285C241.959 697.869 292.765 669.702 337.207 628.429C405.1 565.353 449.492 486.356 488.204 403.658C496.52 385.936 504.404 368.012 512.77 349.429C540.404 365.807 566.948 381.931 593.998 397.345L602.365 402.136V598.387C600.311 663.009 596.306 663.01 548.06 672.111V681.212H751.08V672.44C713.331 664.125 697.612 670.691 696.674 598.387V455.655C701.415 458.114 706.156 460.573 710.922 462.956C725.297 470.181 739.824 477.103 754.655 483.415C784.19 495.939 815.018 506.105 846.886 510.415C861.032 512.317 875.026 513.331 889.274 511.074C906.438 508.362 917.263 503.19 929.407 495.457C983.407 461.105 1008.96 396.052 997.173 339.618L997.148 339.643ZM456.742 410.503L456.793 410.452C433.799 454.641 407.584 496.75 374.069 534.018C337.714 574.429 295.934 607.463 242.035 620.164C191.382 632.105 140.88 634.362 95.6269 601.201C66.472 579.829 51.6156 549.686 46.7987 515.004C33.3621 418.184 85.5621 319.032 173.483 275.452C216.724 255.237 264.472 250.506 312.387 261.458C369.962 274.59 422.339 300.221 473.804 327.982C479.306 330.948 484.756 333.965 491.627 337.742C479.838 362.46 469.013 386.874 456.742 410.528V410.503ZM599.753 353.08C574.199 340.379 550.19 328.413 528.463 317.613C554.576 244.852 575.77 189.61 602.339 106.049V354.348L599.753 353.055V353.08Z" fill="white"/>
</svg>
