<svg width="2000" height="491" viewBox="0 0 2000 491" fill="none" xmlns="http://www.w3.org/2000/svg">
<path d="M1389.01 487.7C1300.88 487.7 1245.98 430.226 1245.98 319.114C1245.98 208.002 1300.9 150.527 1389.01 150.527C1477.12 150.527 1532.05 207.359 1532.05 319.114C1532.05 430.868 1477.12 487.7 1389.01 487.7ZM1318.12 319.132C1318.12 423.856 1338.55 474.3 1388.99 474.3C1439.44 474.3 1459.87 423.856 1459.87 319.132C1459.87 214.407 1439.44 163.321 1388.99 163.321C1338.55 163.321 1318.12 214.407 1318.12 319.132Z" fill="#221F1F"/>
<path d="M1058.93 159.488C1122.15 156.294 1143.22 130.117 1155.36 63.7031H1162.39V159.488H1224.96V172.264C1170.04 172.264 1162.39 180.561 1162.39 208.665V393.846C1162.39 432.156 1164.3 448.126 1180.91 448.126C1196.24 448.126 1208.37 420.022 1219.86 359.996L1231.35 363.833C1215.38 444.932 1201.98 487.721 1152.8 487.721C1113.85 487.721 1098.52 460.902 1098.52 401.518V208.665C1098.52 180.561 1095.33 172.264 1058.93 172.264V159.488Z" fill="#221F1F"/>
<path d="M847.948 354.238C870.306 457.053 906.707 474.29 946.926 474.29C980.133 474.29 993.534 456.41 993.534 432.143C993.534 397.027 967.982 370.832 922.659 329.97C874.125 291.66 842.827 262.29 842.827 216.307C842.827 170.324 886.258 150.535 936.702 150.535C976.297 150.535 994.819 161.384 1028.65 161.384L1045.89 272.496H1033.11C1010.13 176.712 980.74 163.293 946.909 163.293C920.09 163.293 907.314 176.069 907.314 195.216C907.314 225.229 934.133 252.69 980.74 292.909C1023.53 328.026 1057.38 361.875 1057.38 411.052C1057.38 464.69 1015.87 487.672 956.491 487.672C910.508 487.672 883.046 476.823 849.215 476.823L835.172 354.22H847.948V354.238Z" fill="#221F1F"/>
<path d="M1997.43 446.193C1964.22 455.775 1964.22 453.866 1964.22 411.077V262.922C1964.22 221.721 1949.81 180.734 1910.37 162.337C1883.96 150.025 1853.83 147.349 1825.17 151.185C1810.73 153.112 1796.51 156.716 1782.88 161.855C1768.89 167.155 1755.94 174.4 1741.39 178.272C1729.94 181.323 1723.62 178.468 1718.45 168.065C1713.86 158.876 1708.74 150.525 1697.25 150.525C1678.08 150.525 1655.74 173.507 1623.18 206.09V150.525H1616.79C1603.37 165.852 1588.69 169.689 1569.54 170.331H1528.68V176.719C1554.21 183.107 1559.98 187.568 1559.98 230.357V418.732C1559.98 461.521 1554.23 465.982 1528.68 472.37V478.758H1676.19V472.37C1632.78 465.982 1623.2 461.521 1623.2 418.732V223.327C1651.28 195.241 1660.87 186.926 1664.7 189.477C1673.91 195.598 1674.59 211.032 1679.57 220.204C1689.52 238.512 1710.52 238.083 1726.37 226.824C1736.52 219.615 1744.16 209.409 1753.38 201.147C1762.61 192.885 1773.32 185.052 1784.54 178.932C1801.54 169.635 1820.82 163.319 1840.35 163.319C1883.79 163.319 1900.38 186.944 1900.38 261.655V276.34C1882.5 245.685 1853.77 228.448 1815.46 228.448C1750.96 228.448 1699.23 268.685 1699.23 357.439C1699.23 446.193 1750.96 487.715 1814.82 487.715C1853.13 487.715 1882.5 469.194 1900.38 439.181V457.06C1900.38 478.776 1908.69 487.073 1922.1 487.073C1931.04 487.073 1939.33 483.237 1952.11 476.849L2000 451.314L1997.45 446.211L1997.43 446.193ZM1834.59 463.448C1796.28 463.448 1770.1 425.78 1770.1 357.439C1770.1 289.098 1796.28 252.073 1835.23 252.073C1871.63 252.073 1900.36 287.189 1900.36 357.439C1900.36 427.69 1871.63 463.448 1834.59 463.448Z" fill="#221F1F"/>
<path d="M794.771 418.736V22.822H788.383C774.983 38.1496 759.655 41.986 741.134 42.6105H700.272V48.9985C725.806 55.3866 731.569 59.8475 731.569 102.636V402.802V436.009C731.569 456.118 715.278 472.409 695.168 472.409C675.059 472.409 658.767 456.118 658.767 436.009V362.368V344.899C693.58 320.043 709.8 276.433 701.842 238.355L701.913 238.284C696.435 212.053 681.911 189.214 661.444 172.066C660.552 171.316 659.66 170.585 658.767 169.853V22.822H652.379C638.961 38.1496 623.651 41.986 605.13 42.6105H564.268V48.9985C589.802 55.3866 595.565 59.8475 595.565 102.636V138.163C585.448 136.807 574.813 136.575 564.964 137.164C552.277 137.931 539.84 141.107 528.777 147.388C524.298 149.904 520.337 153.883 517.036 157.916C508.988 167.801 510.148 182.308 518.749 190.373C526.653 197.779 545.782 198.367 552.241 189.606C554.864 186.037 557.38 183.379 561.698 180.131C575.045 169.978 587.322 163.947 603.238 165.267C651.434 169.211 699.487 211.375 689.744 272.115C685.872 296.204 673.435 312.477 650.131 319.472C628.772 325.86 607.11 324.308 585.751 318.722C552.473 310.015 521.3 296.043 490.377 281.429V0H483.971C466.681 17.2905 450.247 18.5752 423.981 18.5752C406.905 83.2583 380.354 154.633 356.175 215.551L348.77 212.678C329.125 204.309 309.514 195.834 289.512 188.357C248.311 173.012 203.577 162.662 159.396 167.266C115.197 171.87 77.1728 194.638 48.2661 229.29C20.662 262.462 4.78122 300.558 0.855624 343.365C-0.893049 362.671 -0.161461 382.335 4.92397 401.142C7.85032 411.973 11.4547 422.733 16.7364 432.654C37.8276 472.178 83.5608 489.7 126.243 490.093C170.299 490.503 206.057 470.679 237.337 441.629C285.122 397.234 316.366 341.634 343.614 283.428C349.466 270.955 355.016 258.34 360.904 245.26C380.354 256.787 399.036 268.136 418.075 278.985L423.963 282.357V420.485C422.518 465.968 419.699 465.968 385.742 472.374V478.78H528.634V478.673H564.25V478.78H825.445V472.392C800.535 466.004 794.789 461.543 794.789 418.754L794.771 418.736ZM321.47 288.246L321.505 288.21C305.321 319.311 286.871 348.95 263.282 375.18C237.694 403.622 208.288 426.873 170.352 435.812C134.701 444.217 99.1561 445.805 67.3052 422.465C46.7851 407.423 36.3287 386.207 32.9384 361.797C23.4813 293.652 60.2213 223.866 122.103 193.193C153.115 177.829 186.144 175.635 219.868 183.343C260.391 192.586 297.256 210.626 333.478 230.165C337.35 232.252 341.187 234.376 346.022 237.034C337.725 254.432 330.106 271.615 321.47 288.263V288.246ZM423.945 248.722L422.125 247.812C404.139 238.872 387.241 230.45 371.949 222.849C390.328 171.638 405.245 132.756 423.945 73.9439V248.704V248.722ZM595.53 368.613V419.86C595.53 448.892 571.994 472.427 542.962 472.427C513.931 472.427 490.395 448.892 490.395 419.86V368.613H490.324V320.043C493.66 321.774 496.997 323.505 500.352 325.182C510.469 330.267 520.694 335.139 531.132 339.582C551.759 348.325 573.279 355.445 595.53 358.496V368.613Z" fill="#221F1F"/>
</svg>
