<svg width="2000" height="491" viewBox="0 0 2000 491" fill="none" xmlns="http://www.w3.org/2000/svg">
<path d="M1389.01 488.582C1300.88 488.582 1245.98 431.108 1245.98 319.996C1245.98 208.883 1300.9 151.409 1389.01 151.409C1477.12 151.409 1532.05 208.241 1532.05 319.996C1532.05 431.75 1477.12 488.582 1389.01 488.582ZM1318.12 320.013C1318.12 424.738 1338.55 475.181 1388.99 475.181C1439.44 475.181 1459.87 424.738 1459.87 320.013C1459.87 215.289 1439.44 164.203 1388.99 164.203C1338.55 164.203 1318.12 215.289 1318.12 320.013Z" fill="white"/>
<path d="M1058.93 160.369C1122.15 157.175 1143.22 130.999 1155.36 64.585H1162.39V160.369H1224.96V173.145C1170.04 173.145 1162.39 181.443 1162.39 209.546V394.727C1162.39 433.038 1164.3 449.008 1180.91 449.008C1196.24 449.008 1208.37 420.904 1219.86 360.878L1231.35 364.714C1215.38 445.814 1201.98 488.603 1152.8 488.603C1113.85 488.603 1098.52 461.784 1098.52 402.4V209.546C1098.52 181.443 1095.33 173.145 1058.93 173.145V160.369Z" fill="white"/>
<path d="M847.948 355.12C870.306 457.934 906.707 475.171 946.926 475.171C980.133 475.171 993.534 457.292 993.534 433.025C993.534 397.909 967.982 371.714 922.659 330.852C874.125 292.542 842.827 263.172 842.827 217.189C842.827 171.206 886.258 151.417 936.702 151.417C976.297 151.417 994.819 162.266 1028.65 162.266L1045.89 273.378H1033.11C1010.13 177.594 980.74 164.175 946.909 164.175C920.09 164.175 907.314 176.951 907.314 196.097C907.314 226.11 934.133 253.572 980.74 293.791C1023.53 328.907 1057.38 362.757 1057.38 411.934C1057.38 465.572 1015.87 488.554 956.491 488.554C910.508 488.554 883.046 477.705 849.215 477.705L835.172 355.102H847.948V355.12Z" fill="white"/>
<path d="M1997.43 447.075C1964.22 456.657 1964.22 454.748 1964.22 411.959V263.803C1964.22 222.603 1949.81 181.616 1910.37 163.219C1883.96 150.907 1853.83 148.23 1825.17 152.067C1810.73 153.994 1796.51 157.598 1782.88 162.737C1768.89 168.037 1755.94 175.281 1741.39 179.153C1729.94 182.205 1723.62 179.35 1718.45 168.947C1713.86 159.757 1708.74 151.407 1697.25 151.407C1678.08 151.407 1655.74 174.389 1623.18 206.972V151.407H1616.79C1603.37 166.734 1588.69 170.571 1569.54 171.213H1528.68V177.601C1554.21 183.989 1559.98 188.45 1559.98 231.239V419.614C1559.98 462.403 1554.23 466.864 1528.68 473.252V479.64H1676.19V473.252C1632.78 466.864 1623.2 462.403 1623.2 419.614V224.209C1651.28 196.123 1660.87 187.808 1664.7 190.359C1673.91 196.48 1674.59 211.914 1679.57 221.086C1689.52 239.393 1710.52 238.965 1726.37 227.706C1736.52 220.497 1744.16 210.291 1753.38 202.029C1762.61 193.767 1773.32 185.934 1784.54 179.814C1801.54 170.517 1820.82 164.2 1840.35 164.2C1883.79 164.2 1900.38 187.825 1900.38 262.537V277.222C1882.5 246.567 1853.77 229.33 1815.46 229.33C1750.96 229.33 1699.23 269.567 1699.23 358.321C1699.23 447.075 1750.96 488.597 1814.82 488.597C1853.13 488.597 1882.5 470.076 1900.38 440.063V457.942C1900.38 479.658 1908.69 487.955 1922.1 487.955C1931.04 487.955 1939.33 484.118 1952.11 477.73L2000 452.196L1997.45 447.093L1997.43 447.075ZM1834.59 464.33C1796.28 464.33 1770.1 426.662 1770.1 358.321C1770.1 289.98 1796.28 252.955 1835.23 252.955C1871.63 252.955 1900.36 288.071 1900.36 358.321C1900.36 428.571 1871.63 464.33 1834.59 464.33Z" fill="white"/>
<path d="M794.771 419.618V23.7038H788.383C774.983 39.0315 759.655 42.8678 741.134 43.4924H700.272V49.8804C725.806 56.2684 731.569 60.7293 731.569 103.518V403.683V436.89C731.569 457 715.278 473.291 695.168 473.291C675.059 473.291 658.767 457 658.767 436.89V363.25V345.781C693.58 320.925 709.8 277.315 701.842 239.237L701.913 239.165C696.435 212.935 681.911 190.095 661.444 172.948C660.552 172.198 659.66 171.467 658.767 170.735V23.7038H652.379C638.961 39.0315 623.651 42.8678 605.13 43.4924H564.268V49.8804C589.802 56.2684 595.565 60.7293 595.565 103.518V139.045C585.448 137.689 574.813 137.457 564.964 138.046C552.277 138.813 539.84 141.989 528.777 148.27C524.298 150.786 520.337 154.765 517.036 158.798C508.988 168.683 510.148 183.19 518.749 191.255C526.653 198.66 545.782 199.249 552.241 190.488C554.864 186.919 557.38 184.261 561.698 181.013C575.045 170.86 587.322 164.829 603.238 166.149C651.434 170.093 699.487 212.257 689.744 272.997C685.872 297.086 673.435 313.359 650.131 320.354C628.772 326.742 607.11 325.189 585.751 319.604C552.473 310.897 521.3 296.925 490.377 282.311V0.881836H483.971C466.681 18.1723 450.247 19.457 423.981 19.457C406.905 84.1401 380.354 155.515 356.175 216.433L348.77 213.56C329.125 205.191 309.514 196.715 289.512 189.239C248.311 173.893 203.577 163.544 159.396 168.148C115.197 172.751 77.1728 195.52 48.2661 230.172C20.662 263.343 4.78122 301.44 0.855624 344.246C-0.893049 363.553 -0.161461 383.217 4.92397 402.024C7.85032 412.855 11.4547 423.615 16.7364 433.536C37.8276 473.059 83.5608 490.582 126.243 490.974C170.299 491.385 206.057 471.56 237.337 442.511C285.122 398.116 316.366 342.516 343.614 284.31C349.466 271.837 355.016 259.222 360.904 246.142C380.354 257.669 399.036 269.018 418.075 279.867L423.963 283.239V421.366C422.518 466.85 419.699 466.85 385.742 473.256V479.661H528.634V479.554H564.25V479.661H825.445V473.273C800.535 466.885 794.789 462.425 794.789 419.636L794.771 419.618ZM321.47 289.127L321.505 289.092C305.321 320.193 286.871 349.831 263.282 376.061C237.694 404.504 208.288 427.754 170.352 436.694C134.701 445.098 99.1561 446.686 67.3052 423.347C46.7851 408.305 36.3287 387.089 32.9384 362.679C23.4813 294.534 60.2213 224.748 122.103 194.075C153.115 178.711 186.144 176.516 219.868 184.225C260.391 193.468 297.256 211.508 333.478 231.047C337.35 233.134 341.187 235.258 346.022 237.916C337.725 255.314 330.106 272.497 321.47 289.145V289.127ZM423.945 249.604L422.125 248.694C404.139 239.754 387.241 231.332 371.949 223.731C390.328 172.519 405.245 133.638 423.945 74.8257V249.586V249.604ZM595.53 369.495V420.742C595.53 449.773 571.994 473.309 542.962 473.309C513.931 473.309 490.395 449.773 490.395 420.742V369.495H490.324V320.925C493.66 322.656 496.997 324.386 500.352 326.064C510.469 331.149 520.694 336.02 531.132 340.464C551.759 349.207 573.279 356.326 595.53 359.378V369.495Z" fill="white"/>
</svg>
